<svg xmlns="http://www.w3.org/2000/svg" width="17" height="16" viewBox="0 0 17 16" fill="none">
<path d="M4.40132 7.33334H12.0993C12.674 7.33334 12.9793 6.65335 12.5973 6.22335L8.74865 1.89335C8.68622 1.82288 8.60955 1.76647 8.5237 1.72783C8.43786 1.6892 8.34479 1.66922 8.25065 1.66922C8.15651 1.66922 8.06344 1.6892 7.97759 1.72783C7.89175 1.76647 7.81508 1.82288 7.75265 1.89335L3.90265 6.22335C3.52065 6.65335 3.82598 7.33334 4.40132 7.33334ZM7.75198 14.106C7.81441 14.1765 7.89108 14.2329 7.97693 14.2715C8.06277 14.3102 8.15584 14.3301 8.24998 14.3301C8.34412 14.3301 8.43719 14.3102 8.52304 14.2715C8.60888 14.2329 8.68555 14.1765 8.74798 14.106L12.5966 9.77601C12.9793 9.34668 12.674 8.66668 12.0986 8.66668H4.40132C3.82665 8.66668 3.52132 9.34668 3.90332 9.77668L7.75198 14.106Z" fill="#9E9E9E"/>
</svg>